<svg width="367" height="480" viewBox="0 0 367 480" fill="none" xmlns="http://www.w3.org/2000/svg">
<path d="M2 2V469.765H77.9V310C59.75 283.647 61.4 217.765 110.9 199.647H77.9V69.5294H152.15C149.179 76.0533 147.869 81.9685 147.2 97.5294L221.45 217.765V194.706V104.118V97.5294C221.45 56.3529 290.75 48.1176 295.7 97.5294V160.118H365V97.5294C365 37.5 317 2 258.575 2H2Z" fill="white"/>
<path d="M295.7 295.176V377.529C295.7 420.353 221.45 422 221.45 377.529V349.529V331.412L147.2 199.647C130.7 219.412 126.575 232.588 124.1 267.176H147.2V331.412V377.529C147.2 433.529 191.75 478 258.575 478C325.4 478 365 428.588 365 377.529V295.176H295.7Z" fill="white"/>
<path d="M77.9 199.647C77.9 156.275 77.9 69.5294 77.9 69.5294M77.9 199.647H110.9M77.9 199.647V69.5294M77.9 69.5294H152.15C149.179 76.0533 147.869 81.9685 147.2 97.5294M147.2 199.647C121.787 162.97 124.143 119.924 147.2 97.5294M147.2 199.647L221.45 331.412M147.2 199.647H110.9M147.2 199.647C130.7 219.412 126.575 232.588 124.1 267.176M147.2 97.5294L221.45 217.765M221.45 331.412C261.05 308.353 244.55 250.706 221.45 217.765M221.45 331.412V349.529V377.529C221.45 422 295.7 420.353 295.7 377.529V295.176H365V377.529C365 428.588 325.4 478 258.575 478C191.75 478 147.2 433.529 147.2 377.529V331.412M221.45 217.765V194.706M124.1 267.176H147.2V331.412M124.1 267.176C124.1 291.882 129.05 314.941 147.2 331.412M147.2 331.412C116.473 332.765 94.4 328.118 77.9 310M77.9 310V469.765H2V2H258.575C317 2 365 37.5 365 97.5294V160.118H295.7V97.5294C290.75 48.1176 221.45 56.3529 221.45 97.5294V104.118M77.9 310C59.75 283.647 61.4 217.765 110.9 199.647M221.45 104.118C237.95 132.118 239.6 160.118 221.45 194.706M221.45 104.118V194.706M221.45 104.118C251.638 106.461 270.95 128.824 270.95 146.941C270.95 168.353 251.143 189.872 221.45 194.706M285.8 283.647C289.1 262.235 259.4 256.882 254.45 245.765C249.5 234.647 249.5 214.71 267.65 207.882C285.8 201.055 297.568 214.471 302.3 226C307.032 237.529 302.997 263.11 285.8 283.647Z" stroke="white" stroke-width="4"/>
</svg>
