<svg width="371" height="484" viewBox="0 0 371 484" fill="none" xmlns="http://www.w3.org/2000/svg">
<path d="M149.2 201.647C123.787 164.97 126.143 121.924 149.2 99.5294M149.2 201.647L223.45 333.412M149.2 201.647H112.9M149.2 201.647C132.7 221.412 128.575 234.588 126.1 269.176M149.2 99.5294C149.869 83.9685 151.179 78.0533 154.15 71.5294H79.9C79.9 71.5294 79.9 158.275 79.9 201.647H112.9M149.2 99.5294L223.45 219.765M223.45 333.412C263.05 310.353 246.55 252.706 223.45 219.765M223.45 333.412V351.529V379.529C223.45 424 297.7 422.353 297.7 379.529V297.176H367V379.529C367 430.588 327.4 480 260.575 480C193.75 480 149.2 435.529 149.2 379.529V333.412M223.45 219.765V196.706M126.1 269.176H149.2V333.412M126.1 269.176C126.1 293.882 131.05 316.941 149.2 333.412M149.2 333.412C118.473 334.765 96.4 330.118 79.9 312M79.9 312V471.765H4V4H260.575C319 4 367 39.5 367 99.5294V162.118H297.7V99.5294C292.75 50.1176 223.45 58.3529 223.45 99.5294V106.118M79.9 312C61.75 285.647 63.4 219.765 112.9 201.647M223.45 106.118C239.95 134.118 241.6 162.118 223.45 196.706M223.45 106.118V196.706M223.45 106.118C253.638 108.461 272.95 130.824 272.95 148.941C272.95 170.353 253.143 191.872 223.45 196.706M287.8 285.647C291.1 264.235 261.4 258.882 256.45 247.765C251.5 236.647 251.5 216.71 269.65 209.882C287.8 203.055 299.568 216.471 304.3 228C309.032 239.529 304.997 265.11 287.8 285.647Z" stroke="black" stroke-width="15"/>
</svg>
