<?xml version="1.0" encoding="UTF-8" standalone="no"?>
<!-- Created with Inkscape (http://www.inkscape.org/) -->

<svg
   version="1.1"
   id="svg1"
   width="449.85623"
   height="588.18024"
   viewBox="0 0 449.85623 588.18024"
   sodipodi:docname="Frame 9.png"
   xmlns:inkscape="http://www.inkscape.org/namespaces/inkscape"
   xmlns:sodipodi="http://sodipodi.sourceforge.net/DTD/sodipodi-0.dtd"
   xmlns="http://www.w3.org/2000/svg"
   xmlns:svg="http://www.w3.org/2000/svg">
  <defs
     id="defs1" />
  <sodipodi:namedview
     id="namedview1"
     pagecolor="#ffffff"
     bordercolor="#000000"
     borderopacity="0.25"
     inkscape:showpageshadow="2"
     inkscape:pageopacity="0.0"
     inkscape:pagecheckerboard="0"
     inkscape:deskcolor="#d1d1d1" />
  <path
     style="fill:#010101;stroke:none"
     d="M -3.0157812e-6,0.02416634 V 580.02419 H 89.666667 v -191.33334 -41.66667 -11 c 0,-1.28101 -0.40259,-3.44401 0.34259,-4.56071 1.02901,-1.54208 5.35113,-0.77263 6.99074,-0.77263 -1.01202,23.57365 1.88057,47.62057 14.333333,68.33334 5.26654,8.75989 12.35832,17.73108 22,21.8575 7.30856,3.12793 14.88857,2.80917 22.66667,2.80917 h 28.66667 c 0,43.06522 1.05139,86.72567 28.80813,122.33333 26.93324,34.55128 73.89565,44.54729 115.52521,41.6965 14.85469,-1.01721 29.62085,-3.10995 43.66666,-8.34644 15.72067,-5.86088 30.14128,-14.6759 41.63685,-27.01672 19.55973,-20.99793 29.76229,-48.15483 33.26827,-76.33334 2.05053,-16.48083 1.76155,-33.07235 1.76155,-49.66667 v -59.33333 h -85 v 75 c 0,15.361 1.03483,31.90642 -7.151,45.66667 -15.30143,25.72148 -60.71468,25.85836 -75.7065,-0.33333 -6.89071,-12.0385 -7.1425,-26.53333 -7.1425,-40.00001 v -41.66666 c 6.81559,3.78011 13.38802,7.71529 20.66667,10.59875 14.29976,5.66492 29.37813,7.73458 44.66666,7.73458 -4.06644,-9.76501 -10.19686,-19.02747 -15.23042,-28.33333 -11.17884,-20.667 -22.3407,-41.34343 -33.53915,-62.00001 l -11,-20.33333 c -1.72868,-3.19592 -4.20691,-6.53833 -5.33073,-10 -1.34888,-4.15487 -0.23303,-10.30241 -0.23303,-14.66667 v -32 c 14.94722,0 32.65731,2.89852 46,-5.14994 30.84001,-18.60303 32.46643,-71.69926 4,-93.21733 -14.52124,-10.97673 -32.8809,-8.2994 -50,-8.2994 0,-18.41984 -1.4963,-40.52628 11.72453,-55.333332 19.75374,-22.12378 63.19669,-16.27312 73.92078,12.000002 4.34895,11.46561 4.35469,23.26741 4.35469,35.33333 v 34 18.33334 c 0,1.41154 -0.68197,5.36067 0.53447,6.32409 1.23014,0.97429 4.62784,0.34257 6.1322,0.34257 h 16 62.33333 c 0,-52.66089 6.7603,-113.248742 -28.33463,-157.333336 C 415.54343,36.838173 409.30824,30.30737 402.33334,24.985592 367.29965,-1.7447547 324.07313,0.02416634 282.33334,0.02416634 H -3.0157812e-6 M 190.66667,90.024168 c -4.17977,14.838952 -5.31683,30.364582 -5.98688,45.666672 -0.31738,7.24801 1.12655,15.1866 -0.088,22.33333 -0.62504,3.67794 -4.45013,7.66126 -6.17232,11 -3.49007,6.76608 -6.30396,14.2251 -7.94471,21.66667 -2.85874,12.96574 -1.68481,27.51135 2.75592,40 2.24791,6.32178 6.2662,12.29167 8.10263,18.66667 H 113.99997 96.666637 c -1.5684,0 -5.18716,0.66992 -6.46554,-0.34257 -1.48311,-1.17464 -0.53446,-7.19727 -0.53446,-8.99076 V 213.69084 122.3575 98.690838 c 0,-1.94857 -0.89482,-6.90316 0.34259,-8.46554 0.93516,-1.18074 4.62843,-0.53446 5.99074,-0.53446 h 18.000003 52.33334 16 c 2.67248,0 5.76108,-0.427 8.33333,0.33333 m 90,159.333342 c 0.78744,-3.0295 3.62114,-5.92249 5.19084,-8.66667 2.70638,-4.73132 4.85689,-9.7972 6.46732,-15 5.00318,-16.16382 4.12887,-34.99125 -2.14119,-50.66667 -2.53341,-6.33362 -6.52039,-11.48877 -9.8503,-17.33333 12.82902,0 26.41406,-2.09619 37.66667,5.23177 25.53906,16.63167 25.3728,62.64555 1.33333,80.38294 -11.21208,8.27278 -25.52714,6.05196 -38.66667,6.05196 m -6,-86.66667 c 3.10417,3.05302 5.15906,7.47685 7.08232,11.33333 7.78247,15.60531 8.27181,35.60429 2.80656,52 -1.95496,5.86487 -5.19918,14.45704 -10.22221,18.33334 v -57.66667 -16.33333 l 0.33333,-7.66667 m -84.33333,1 33.76955,62.33333 60.66669,112.00001 28.18416,52 8.66667,16 5.04626,10 c -5.56852,-0.0154 -11.28914,-1.36446 -16.66666,-2.70882 -15.68986,-3.92249 -32.13758,-11.5848 -42.90357,-23.95785 -10.48482,-12.04992 -16.98539,-27.71171 -24.53267,-41.66666 -10.93964,-20.22738 -22.52249,-40.10804 -33.46088,-60.33334 -6.41524,-11.8619 -11.79765,-24.15125 -18.20577,-36 -12.29759,-22.73849 -19.47162,-46.23157 -9.43057,-71.33334 2.09544,-5.2384 4.63589,-12.4554 8.86679,-16.33333 m -12,103.33334 c -1.4351,3.39465 -4.23949,6.46748 -6.13221,9.66666 -3.11004,5.2568 -5.59043,10.91614 -7.63708,16.66667 -10.13269,28.47009 -10.4739,62.20044 -0.33334,90.66667 2.83311,7.953 6.74655,15.33325 11.43622,22.33333 2.22417,3.31991 5.68478,6.4017 7.33307,10 h -28 c -8.14093,0 -16.00494,0.18018 -23,-4.67977 -10.5439,-7.3256 -16.73714,-19.64217 -21.14119,-31.32023 -9.73808,-25.82218 -9.37997,-55.92277 1.52467,-81.33333 4.51718,-10.52615 10.68158,-20.98291 20.28319,-27.65357 6.57668,-4.56909 13.6985,-4.34643 21.33333,-4.34643 h 24.33334 m 171,92.66667 c 5.42208,-3.81942 10.02173,-10.62903 13.2832,-16.33334 12.21359,-21.36149 18.59843,-58.12577 -9.61653,-70.19084 -22.92367,-9.80245 -49.10307,10.85327 -43.44959,35.52417 1.79631,7.83871 6.66927,15.07496 13.44959,19.43392 4.88965,3.14344 10.37691,4.77784 15,8.45472 7.30766,5.81197 11.33235,13.84265 11.33333,23.11137 m 4.33333,-16 c -4.66284,-4.59953 -7.44169,-10.41797 -13,-14.41797 -5.89404,-4.24162 -13.78971,-5.83281 -18.51184,-11.58204 -2.35807,-2.87097 -4.1239,-6.08561 -5.10412,-9.66666 -0.83008,-3.03239 -1.15829,-5.88837 -0.71713,-9 3.14921,-22.21127 33.59168,-28.60108 45.26494,-9.33334 2.04956,3.383 3.27889,7.39978 3.67851,11.33334 0.67602,6.65438 0.26375,13.47778 -1.32024,20 -1.94409,8.00504 -5.69201,15.84521 -10.29012,22.66667 m -169,-13.00001 v 75.33334 c -4.01355,-3.26762 -6.79814,-9.43168 -9.0823,-14 -6.64626,-13.29256 -10.84509,-29.08989 -10.91797,-44 -0.0208,-4.26782 -0.46405,-8.38237 -0.0563,-12.66667 0.10919,-1.1473 -0.3583,-3.17582 0.39917,-4.1322 0.84562,-1.06767 3.77991,-0.53447 4.99074,-0.53447 z"
     id="path1" />
</svg>
