<?xml version="1.0" encoding="UTF-8" standalone="no"?>
<!-- Created with Inkscape (http://www.inkscape.org/) -->

<svg
   version="1.1"
   id="svg1"
   width="1350.4603"
   height="1776.5717"
   viewBox="0 0 1350.4603 1776.5717"
   sodipodi:docname="Frame 91.png"
   xmlns:inkscape="http://www.inkscape.org/namespaces/inkscape"
   xmlns:sodipodi="http://sodipodi.sourceforge.net/DTD/sodipodi-0.dtd"
   xmlns="http://www.w3.org/2000/svg"
   xmlns:svg="http://www.w3.org/2000/svg">
  <defs
     id="defs1" />
  <sodipodi:namedview
     id="namedview1"
     pagecolor="#ffffff"
     bordercolor="#000000"
     borderopacity="0.25"
     inkscape:showpageshadow="2"
     inkscape:pageopacity="0.0"
     inkscape:pagecheckerboard="0"
     inkscape:deskcolor="#d1d1d1" />
  <path
     style="fill:#090909;stroke:none"
     d="M 0,1.5717087 V 1760.5717 H 276 V 993.57171 c 2.96729,4e-4 8.09406,-0.8789 10.30713,1.6034 2.1651,2.4286 0.69775,8.37219 0.69287,11.39659 v 32 c 0.0822,51.1462 14.95856,106.0835 39.30865,151 15.58954,28.7567 38.30774,58.6711 68.69135,72.6906 22.08661,10.191 45.27606,9.3094 69,9.3094 h 86 c 0,129.2057 -0.57068,262.3885 80.89508,371 74.97842,99.9625 198.49672,134 318.10492,134 42.8094,0 85.3033,-3.2024 127,-13.6266 61.5416,-15.3854 121.1486,-44.3937 164.9105,-91.3734 18.5563,-19.9207 35.308,-41.4769 49.0779,-65 56.9098,-97.2189 59.0116,-207.7954 59.0116,-317 v -181 h -256 v 224 c 0,48.3296 2.2545,99.8752 -23.453,143 -47.6421,79.9203 -186.4155,72.2054 -229.6827,-7 C 820.8927,1433.8422 821,1392.9415 821,1354.5717 v -137 c 54.1149,41.2915 128.7002,55 195,55 l -45.6913,-85 -94.6174,-175 -38.4722,-70.99999 -15.7207,-30 -0.4984,-45 v -96 c 44.592,0 97.1908,8.56348 137,-15.44983 92.52,-55.80908 97.3993,-215.09778 12,-279.65198 -43.3456,-32.76538 -97.8962,-24.89819 -149,-24.89819 0,-52.13538 -4.2455,-109.99023 27.4391,-155 46.7442,-66.40295 168.3078,-66.72095 215.8155,-1 27.7933,38.44849 28.7454,88.57263 28.7454,134 v 178 h 256 c 0,-160.90039 19.9282,-342.57642 -87.4491,-477 C 1245.5951,109.59686 1227.3455,90.979419 1207,75.455989 1139.9894,24.327569 1056.9314,4.2428487 974,0.61101868 932.8085,-1.1928213 891.2543,1.5717087 850,1.5717087 H 0 M 1116,583.57171 v -149 c 0,-49.31799 -0.3435,-100.2063 -26.453,-144 -54.4447,-91.32092 -217.1628,-91.84412 -267.7661,4 C 789.0334,356.59637 797,430.80193 797,498.57171 v 368 c -7.6957,-7.61353 -12.1613,-20.505 -17.3087,-30 l -33,-61 -116.99995,-216 c -13.16279,-24.33533 -26.13959,-48.80359 -39.55243,-73 -5.49176,-9.90698 -16.435,-23.54456 -17.09571,-35 -6.43329,-111.53711 16.84973,-236.05103 92.24304,-322 C 741.9403,42.185599 865.4786,19.692319 976,24.532399 c 56.3026,2.4657 111.4792,12.69129 163,36.34803 20.7301,9.51855 40.25,22.22668 58,36.49524 107.5054,86.419671 129,224.729001 129,354.196041 v 98 24 c 0,2.61694 0.7496,7.10864 -1.6034,8.97229 -3.0946,2.45105 -10.6655,1.02771 -14.3966,1.02771 h -40 -154 M 782,25.571709 v 1 C 701.9926,57.434379 637.44806,111.18182 598.75311,188.57171 590.35242,205.3731 581.25989,223.1585 577,241.57171 H 253 v 525 h 184 v 1 c -84.86243,32.92542 -134.77576,114.651 -146,203 H 253 V 1736.5717 H 24 V 25.571709 H 782 M 569,264.57171 c -5.112,37.96313 -15.26971,74.4375 -17.91052,113 -1.54773,22.60046 -1.08948,45.323 -1.08948,68 0,9.82715 1.66907,21.36365 -0.27777,31 -1.20764,5.97742 -6.42792,11.81604 -9.52161,17 -5.61603,9.41064 -10.39685,19.02039 -14.89508,29 -14.52759,32.23022 -22.15722,66.63391 -21.29089,102 0.65808,26.86646 7.12219,54.02454 16.79632,79 4.99347,12.89148 14.78394,26.50793 17.18903,40 H 276 v -479 h 293 m 270,484 c 2.3623,-9.0885 10.8634,-17.76746 15.5725,-26 8.1192,-14.19397 14.5707,-29.3916 19.402,-45 15.0095,-48.49146 12.3866,-104.97375 -6.4236,-152 -7.6002,-19.00085 -19.5612,-34.46631 -29.5509,-52 38.4871,0 79.2422,-6.28857 113,15.69531 76.6172,49.89502 76.1184,187.93665 4,241.14881 -33.6362,24.81836 -76.5814,18.15588 -116,18.15588 m -17,-260 c 8.5259,13.8158 17.7173,26.88647 23.9884,42 18.8927,45.53137 20.4525,100.26013 5.0109,147 -5.8621,17.74365 -15.247,42.81531 -29.9993,55 v -172 -49 l 1,-23 m -254,3 101.3087,187 182,335.99999 84.5525,156 26,48 15.1388,30 c -16.7056,-0.046 -33.8674,-4.0934 -50,-8.1265 -47.0696,-11.7674 -96.4127,-34.7544 -128.7107,-71.8735 -31.4545,-36.1498 -50.9562,-83.1351 -73.598,-125 -32.8189,-60.68209 -67.56746,-120.32409 -100.38265,-180.99999 -19.24572,-35.58569 -35.39294,-72.45374 -54.6173,-108 -36.89277,-68.21545 -58.41486,-138.6947 -28.29169,-214 6.28631,-15.71521 13.90765,-37.36621 26.60034,-49 m -18,275 c 0,22.87 -17.81378,34.85864 -29.65588,53 -16.48969,25.26111 -28.79169,53.83569 -36.45984,83 -22.8913,87.0626 -23.20642,183.21679 12.54321,266.99999 8.14777,19.0952 18.36688,37.0117 30.29321,54 5.99927,8.5454 14.95649,16.5631 19.2793,26 h -84 c -24.86407,0 -48.83746,0.4766 -70,-14.7461 -31.00208,-22.3007 -49.29407,-58.4387 -62.42358,-93.2539 -27.22156,-72.1826 -28.1529,-155.48019 -1.62964,-227.99999 11.25793,-30.78137 26.16534,-60.1731 49.22296,-83.91052 C 420.10291,785.46221 490.13745,766.57171 550,766.57171 m 495,312.99999 c 16.2662,-11.4583 30.0652,-31.8871 39.8496,-49 36.6408,-64.08449 55.7953,-174.37731 -28.8496,-210.5725 -68.771,-29.40735 -147.3092,32.55981 -130.3488,106.57251 5.389,23.5161 20.0079,45.2249 40.3488,58.3018 14.6689,9.4303 31.1307,14.3335 45,25.36409 21.923,17.4359 33.9971,41.5279 34,69.3341 M 574,815.57171 h 1 c 12.53204,21.47144 22.8031,44.2605 34.86108,66 40.271,72.6052 80.87772,145.00949 120.44762,217.99999 12.7704,23.5562 24.4182,47.4731 40.5647,69 6.6426,8.8562 23.1958,20.5776 25.8087,31 4.5948,18.3276 0.3179,43.0652 0.3179,62 0,40.8503 -1.8784,82.2804 0.9105,123 2.7069,39.5217 7.8801,78.8616 31.8349,112 61.6652,85.3062 217.8459,75.8792 265.2855,-19 22.8273,-45.6545 20.9691,-96.4069 20.9691,-146 v -200 h 154 40 c 3.731,0 11.3019,-1.4233 14.3966,1.0278 2.5215,1.9971 1.6033,7.1691 1.6034,9.9722 v 26 108 c 0,103.7958 1.608,211.855 -49.3087,306 -13.6944,25.3208 -30.4236,47.4692 -49.4058,69 -17.9074,20.3118 -40.0571,37.5487 -63.2855,51.3959 -55.9355,33.3448 -118.9712,45.3089 -183,49.6936 -121.7646,8.3384 -255.4736,-22.9235 -332.10492,-125.0895 -15.62439,-20.8307 -28.88446,-43.9539 -38.88348,-68 C 574.92566,1475.1955 573,1387.4513 573,1297.5717 v -209 -192.99999 -55 c 0,-7.47986 -1.90326,-18.0813 1,-25 m -24,2 v 153 h -57 c 10.33557,-55.6368 21.30505,-105.95502 55,-153 h 2 m 508,213.99999 c -13.9885,-13.7986 -22.3251,-31.2539 -39,-43.25389 -17.6821,-12.7249 -41.3691,-17.4984 -55.5355,-34.7461 -7.0742,-8.6129 -12.3717,-18.2568 -15.3124,-29 -2.4902,-9.0972 -3.4749,-17.6651 -2.1514,-27 9.4477,-66.63379 100.7751,-85.80322 135.7948,-28 6.1487,10.14899 9.8367,22.1993 11.0356,34 2.028,19.9631 0.7912,40.4333 -3.9607,60 -5.8323,24.0151 -17.0761,47.53559 -30.8704,67.99999 m -508,185 c -11.75024,-6.9095 -20.29834,-28.103 -26.24689,-40 -19.93878,-39.8777 -32.53528,-87.2697 -32.7539,-132 -0.0626,-12.8035 -1.39215,-25.1471 -0.16895,-38 0.30609,-3.2162 -0.9331,-8.70649 1.19751,-11.39659 3.52387,-4.4493 21.59174,-1.6034 26.97223,-1.6034 6.59851,0 24.15088,-3.127 29.39661,1.0278 3.43249,2.7185 1.60339,13.03469 1.60339,16.97219 v 49 61 z"
     id="path1" />
</svg>
