<?xml version="1.0" encoding="UTF-8" standalone="no"?>
<!-- Created with Inkscape (http://www.inkscape.org/) -->

<svg
   version="1.1"
   id="svg1"
   width="1356.7949"
   height="376"
   viewBox="0 0 1356.7949 376"
   sodipodi:docname="20210122_200450_0001.png"
   xml:space="preserve"
   xmlns:inkscape="http://www.inkscape.org/namespaces/inkscape"
   xmlns:sodipodi="http://sodipodi.sourceforge.net/DTD/sodipodi-0.dtd"
   xmlns="http://www.w3.org/2000/svg"
   xmlns:svg="http://www.w3.org/2000/svg"><defs
     id="defs1" /><sodipodi:namedview
     id="namedview1"
     pagecolor="#ffffff"
     bordercolor="#000000"
     borderopacity="0.25"
     inkscape:showpageshadow="2"
     inkscape:pageopacity="0.0"
     inkscape:pagecheckerboard="0"
     inkscape:deskcolor="#d1d1d1" /><path
     id="path2"
     style="fill:#000000;stroke:none;stroke-width:0.476726"
     d="m 604.3194,0 v 74 l -126,-1 v 45 c 18.48918,-6.61403 39.40804,-4 59,-4 v 195 h 48 V 114 h 19 v 261 h 0.0723 v 0.0977 l 22.49218,0.006 L 823.3194,376 h 56 l 7.3438,-0.87695 h 14.0214 v -1.67383 l 0.062,-0.008 L 901.3194,357 v -51 c 37.6946,7.1021 103.6708,4.26243 118,-41 h 1 l -14,40 c 11.4957,0 23.5804,-1.06225 35,0.28516 3.8636,0.45587 11.0381,2.34172 14.1465,-0.88868 7.1303,-7.41027 9.2526,-27.59546 12.5195,-37.39648 1.7812,-5.34334 2.6409,-12.34814 9.3379,-12.94141 17.0462,-1.51006 34.8776,-0.0586 51.9961,-0.0586 5.623,0 15.8322,-1.95034 20.7754,1.02734 4.0059,2.41309 4.7133,8.88312 5.9453,12.97266 2.8524,9.46843 5.6723,28.12119 12.3652,35.39648 2.7823,3.0245 10.2001,1.60352 13.9141,1.60352 h 38 c -15.2524,-55.8812 -40.2018,-110.42672 -59.6914,-165 -7.6934,-21.54246 -21.4382,-46.09786 -23.3086,-69 h -49 c -2.121,15.736 -9.8985,31.05296 -14.9961,46 -15.2867,44.8229 -37.3342,89.87745 -48.0039,136 h -1 c 1.3113,-10.32091 2.9981,-20.53684 1.7129,-31 -3.8243,-31.13705 -27.6754,-48.06544 -56.7129,-54.57422 -19.4606,-4.36211 -52.7519,-2.95003 -64.3164,-22.46484 -10.9116,-18.413 6.6832,-34.02674 24.3164,-35.79102 18.597,-1.86072 40.1461,1.91495 56,12.07031 6.4993,4.16318 10.9957,10.16791 17,14.75977 0.033,-11.92067 1.2747,-24.09898 2.0898,-36 0.3242,-4.73453 2.4871,-11.37302 -0.1171,-15.78711 C 1000.5605,77.88804 986.945,74.57263 980.3194,72.58984 954.56,64.881139 926.8885,64.683052 901.3194,73 V 0 h -44.625 z m 183.83984,3.134766 46.41993,0.140625 c 5.34175,0.01633 15.70952,0.009 21.5957,0.05078 0.16061,2.738451 -0.0192,6.672468 0.006,9.488281 0.0657,7.409355 0.0657,14.828926 0,22.238281 -0.0224,2.536287 0.0231,0.911121 0.0449,8.947266 H 799.47956 788.3194 l -1.39453,-0.02344 c 2.15121,-1.230088 4.00691,-2.549229 5.61719,-3.929687 0.46481,-0.399116 0.9248,-0.787385 1.34961,-1.205078 1.54934,-1.497852 2.8021,-3.058178 3.81445,-4.648438 0.0645,-0.104707 0.13861,-0.203333 0.20117,-0.308593 1.12531,-1.831556 1.85274,-3.695253 2.35352,-5.556641 0.0861,-0.309357 0.1328,-0.613179 0.20507,-0.923828 0.29337,-1.344325 0.45092,-2.666647 0.4629,-3.976563 0.40291,-8.618614 -4.17712,-16.884965 -12.76954,-20.292968 z m -30.38281,0.109375 c -0.51928,0.233903 -0.95627,0.494887 -1.45898,0.734375 -17.91308,6.213155 -26.99149,21.922242 -27.89063,39.978515 H 646.43073 V 3.275391 l 96.74609,0.175781 z m -150.36719,0.03125 h 35.84375 v 40.68164 H 607.3487 Z m 251.95899,0 H 897.5069 V 44 h -38.13867 z m -85.81055,0.04883 c 6.44487,0.144351 13.23582,1.76786 18.10352,6.240234 12.13521,11.149635 4.77488,29.856245 -10.17969,33.585938 -0.077,0.01919 -0.15729,0.02245 -0.23438,0.04102 C 775.37234,44.263869 769.24884,44 763.3194,44 h -26.06055 l -5.7207,-0.03906 c 0.0705,-3.31016 0.59841,-6.594151 1.38281,-9.802735 1.21141,-4.354097 2.91356,-8.530003 5.5625,-12.443359 0.9516,-1.40581 1.97356,-2.72201 3.03711,-3.978516 0.0948,-0.102428 0.15577,-0.218582 0.25195,-0.320312 0.22794,-0.264429 0.48597,-0.484661 0.71876,-0.742188 6.71164,-6.736835 16.44914,-11.659042 26.1914,-13.164062 1.59813,-0.142563 3.21889,-0.222645 4.875,-0.185547 z m 97.54688,43.871093 26.37694,0.201172 0.018,26.480466 c -1.55,2.72912 -5.6491,3.86168 -8.1797,5.38086 -5.0711,3.04434 -8.00199,4.92072 -11.5,6.95703 -0.29938,0.17429 -0.70307,0.19238 -1.02734,0.32813 H 859.36823 V 59.212891 c 0.005,-3.071684 0.071,-7.135888 0,-11.84375 6.46258,-0.145768 8.79923,-0.134604 11.73633,-0.173829 z m -263.75782,0.574219 h 35.9043 v 7.671875 c -0.0542,6.252644 -0.1183,12.913534 -0.14648,18.089844 C 632.4966,74.29536 615.14294,74 607.3194,74 V 65.2793 Z M 1354.3194,67 c -12.5641,7.73818 -32.6959,4 -47,4 -37.8428,0 -79.7888,5.01085 -117,-2 v 45 c 19.0142,-5.42306 38.2548,-4 58,-4 v 195 l 49,1 V 110 l 58,2 c 0,-12.74181 3.91,-33.29908 -1,-45 z M 76.610417,70.4707 c -33.12684,1.93375 -65.071,16.92958 -73.91602,52.5293 -11.35018,45.68254 19.01684,79.25619 62.625,86.58594 18.37204,3.088 53.181203,1.55882 59.236333,24.41406 5.75454,21.72068 -18.204,34.41382 -36.236333,36 -34.70239,3.05255 -64.65267,-6.08813 -85,-36 h -1 c 0,13.83825 -0.14367,28.18318 -1.08984,42 -0.32856003,4.79791 -2.97384,13.06803 0.69336,17.0957 8.42433,9.25237 27.75718,12.67112 39.39648,15.5293 47.19369,11.58904 119.787243,0.0284 127.710943,-58.625 1.08645,-8.04223 1.70993,-15.9372 0.56054,-24 -1.03124,-7.23418 -2.47241,-14.3296 -5.5957,-21 C 149.30941,173.63565 110.96372,170.97939 81.319397,165.38867 64.783387,162.27007 36.274987,150.24763 46.891667,128 c 12.49203,-26.17752 60.198883,-16.30038 79.427733,-4.79297 7.30355,4.37079 12.67576,12.08484 20,15.79297 0,-12.72689 1.91848,-25.3166 2,-38 0.0228,-3.55334 1.97221,-10.32816 -0.043,-13.36328 C 142.08608,78.313 119.50976,74.53318 109.3194,72.61133 98.825787,70.6323 87.652697,69.82612 76.610417,70.4707 Z M 324.3194,71 c -18.9954,5.41771 -40.2315,3 -60,3 -35.00625,0 -70.07889,0.4996 -105,-1 v 45 c 17.00578,-7.68078 39.52404,-4 58,-4 v 143 37 l 1.02734,13.39648 L 231.3194,309 h 35 V 114 l 58,1 z m 52,3 c -0.86386,18.90403 -12.48584,40.31786 -18.94727,58 -14.57206,39.87755 -28.50837,80.00111 -42.74414,120 -6.2741,17.62867 -17.67157,38.36751 -19.30859,57 h 35 L 342.80573,308.9336 347.98542,296 359.3194,258 h 57 l 22.58008,1.02734 5.76367,13.97266 11.65625,36 h 52 C 504.74628,288.23528 493.61359,266.7996 486.37213,247 472.3658,208.70396 458.34203,170.40157 444.62799,132 438.11506,113.76278 426.9054,93.41606 425.3194,74 Z m 337.85352,15.72266 h 11.71093 v 9.5332 l -6.62109,-5.22656 z m 18.23046,0 h 30.6543 c 0.45261,0.23662 0.9095,0.47067 1.23438,0.88086 0.18299,0.23104 0.22796,0.58873 0.36523,0.86328 v 38.15234 c -0.21376,-0.11079 -0.57567,-0.3422 -0.80078,-0.46094 l -22.08008,-16.83593 -10.08789,-9.27149 c -0.91659,-1.58105 -1.56178,-3.16631 -1.9668,-4.74219 l -0.0176,-6.24609 c 0.35726,-1.06122 1.3888,-1.77787 2.69921,-2.33984 z m 126.96485,0 h 15.16406 c -4.55369,3.58454 -8.16345,10.67374 -11.07422,15.87304 -0.006,0.01 -0.014,0.008 -0.0195,0.0176 h -4.07031 z m -91.04883,0.0019 c 15.23826,-0.0396 30.4737,-0.0213 45.71094,0.13281 0.24905,0.17784 0.50139,0.33941 0.71484,0.58789 l 0.1211,14.20899 c -0.43412,0.41078 -0.95804,0.73453 -1.57813,0.95898 H 768.3194 Z m -121.25391,1.26953 53.39258,41.20117 16.52344,12.9043 9.66797,8.41016 -0.12891,15.03125 H 646.43073 V 118.96094 Z M 768.3194,109 h 88 v 44.19727 l -0.12891,15.34375 h -26.0625 c -4.38962,0 -9.16861,-0.0219 -14.95312,-0.0254 -0.76528,-0.20628 -1.553,-0.57265 -2.33203,-0.875 l -10.68164,-8.20507 -32.10938,-25.6875 c -0.39516,-0.58941 -0.8801,-1.14292 -1.1289,-1.78711 -1.14876,-2.97423 -1.31551,-6.75276 -1.20704,-10.60547 l 0.01,-1.13867 c 0.16907,-3.96107 0.59352,-7.96778 0.59352,-11.2168 z m 91.04883,0 h 2.95117 l -2,8 h -0.97852 z m -252.04492,5 31.54492,0.51172 4.38476,3.2832 v 50.7461 h -35.84375 z m 503.99609,17 9,26 18,55 h -53 l 15.9746,-51 z m -711,3 26,82 h -53 l 16.85938,-54 z m 330.24219,22.17773 34.40625,24.55665 c 0,3.8029 -0.0527,1.0371 -0.0527,7.17578 0,5.08791 -0.0135,-0.21 -0.0137,6.61718 -0.0107,0.0267 -0.0322,0.0553 -0.043,0.082 -7.69195,6.10482 -26.06316,21.77271 -35.16015,27.96093 v -41.95312 l 0.17968,-22.10547 z M 860.3194,159 l 2.86328,9.54102 h -3.8164 z m -133.91406,12.90039 c 2.3e-4,4.49329 0.019,8.65378 0.0332,12.66602 l -0.0293,0.43359 -0.0879,25.55469 -79.89062,-0.0625 V 172 H 706.3194 Z M 607.3194,172 h 35.93164 v 38.49219 H 607.3194 Z m 212.18164,0 h 36.51172 l -0.0996,38.58203 -43.13672,-0.0879 c 2.2181,-2.8086 5.04129,-5.565 8.09375,-8.24609 l 5.79688,-4.67383 c 4.25708,-3.21836 8.6853,-6.28373 12.65233,-8.57421 v -1 l -0.38867,-0.31055 0.0977,-0.0801 z m 39.81836,0 c 7.67473,0.25443 10.14069,6.92779 15.03906,11.99609 6.32662,6.54606 14.39004,11.98644 23.14844,14.69922 v 11.79688 h -38.1875 z m -91.65039,10.58398 7.10351,4.78711 c -3.38117,2.08503 -3.90884,2.43201 -7.12109,4.44141 z M 901.3194,201 c 18.1835,4.16858 36.9408,5.8019 55,10.13086 7.9774,1.91226 16.7986,4.96496 21.75,11.95898 2.34,3.3053 3.0349,6.97223 3.5059,10.91016 3.6366,30.40436 -34.224,33 -55.2559,33 -6.4067,0 -18.3379,1.0108 -23.3965,-3.85352 -3.2699,-3.1443 -1.6035,-11.99362 -1.6035,-16.14648 z m -80.08984,12.67188 33.80273,0.2539 c 0.30033,0.004 0.72907,0.0577 1.02344,0.0586 2.6e-4,13.1753 0.15039,39.34152 0.15039,57.50585 -8.64715,0 -17.06254,0.0234 -22.89844,0.0234 h -43.85937 l -21.17383,-0.32422 c -0.0152,-0.95146 -0.11605,-2.17646 -0.17578,-3.21875 l 0.17968,-18.83984 c 0.20593,-1.03944 0.29121,-2.177 0.64454,-3.0918 0.1171,-0.30319 0.42856,-0.57137 0.58007,-0.86914 l 23.12305,-19.88672 c 3.14684,-2.70643 6.63025,-5.47871 9.69727,-7.95117 1.64077,-1.032 3.29627,-1.99581 4.99609,-2.60351 1.10748,-0.39594 2.34309,-0.64963 3.55273,-0.93164 z m -112.02344,0.008 c 5.69704,0.01 13.65297,0.0293 17.3789,0.0293 0,3.58238 0.0723,5.28142 0.0723,10.96094 -7.96081,7.13099 -9.03279,8.17558 -14.75586,12.90235 -12.75493,10.53447 -25.92266,20.56761 -38.77344,30.98437 -8.54405,6.92577 -11.43906,9.35595 -26.69726,20.11914 V 214 h 59.88864 c 0.56718,0 2.04476,-0.22865 2.88672,-0.32031 z M 607.3194,214 h 35.93359 v 74.67578 H 607.3194 Z m 252,0 h 38.1875 v 47.74023 C 874.28804,255.86327 859.3194,237.12146 859.3194,214 Z m -94.49023,34.29688 c -0.007,9.77153 -0.49805,39.83203 -0.49805,39.83203 l -33.9336,0.54687 -0.0547,-12.0957 33.14062,-27.4668 c 0.4093,-0.24034 0.96338,-0.59525 1.34571,-0.8164 z M 768.3194,275 h 45.91992 l 0.0625,13.41406 -45.98242,-0.25976 z m -42.43945,4.36523 -0.14649,9.39844 -11.0332,-0.082 z M 607.3194,292 h 36 v 4.14648 c -0.032,2.07716 -0.0684,4.13954 -0.0684,7.1504 v 27.33007 h -34.9668 z m 252.04883,0.0156 38.13667,12.7129 v 25.89843 h -38.13667 z m -146.19727,41.79102 h 13.67188 C 727.9347,333.86433 729.35697,334 730.3194,334 h 33.0293 c -1.84798,13.10369 -9.84179,26.61651 -21.60352,33.4375 -3.5368,1.86369 -7.42276,3.16285 -11.49023,4.08984 -3.27564,0.50745 -6.69388,0.5918 -11.25586,0.5918 -6.6437,0 -14.64889,0.65485 -20.23242,-3.66992 -5.64563,-4.37287 -7.98201,-11.37914 -7.20899,-17.99219 0.72418,-4.76076 2.88038,-9.31512 6.4668,-12.55078 0.022,-0.0189 0.0483,-0.0339 0.0703,-0.0527 0.91319,-0.81612 2.00254,-1.44421 3.08789,-2.07422 0.3976,-0.21736 0.77389,-0.45689 1.19531,-0.64844 0.60598,-0.27543 1.24184,-0.43946 1.875,-0.61328 0.36752,-0.11965 0.7692,-0.20059 1.15625,-0.29883 2.53743,-0.48478 5.20663,-0.40748 7.76172,-0.41211 z M 607.3194,334 h 35.93359 v 37.94336 H 607.3194 Z m 39.11133,0 h 50.08594 l 1.79687,0.008 c -0.23335,0.40921 -0.62477,0.73226 -0.90234,1.11719 -15.13513,10.48975 -10.71559,30.17692 1.98828,36.81836 h -52.96875 z m 120.12305,0 h 89.4082 l 0.22656,37.94531 H 739.25104 C 756.17347,364.42732 765.07571,349.17276 766.55378,334 Z m 92.81445,0 h 38.13667 v 37.94531 h -38.13667 z" /></svg>
